<svg height="718" width="720" xmlns="http://www.w3.org/2000/svg">
<rect height="718" fill="#555" width="720"></rect>
<text fill="#7f7" font-family="Courier New" font-size="12" xml:space="preserve">
<tspan x="10" y="26">15 megabytes installed</tspan>
<tspan x="10" y="42"></tspan>
<tspan x="10" y="58">node_modules</tspan>
<tspan x="10" y="74">└─┬ babel-preset-stage-3@6.24.1 </tspan>
<tspan x="10" y="90">  ├── babel-plugin-syntax-trailing-function-commas@6.22.0 </tspan>
<tspan x="10" y="106">  ├─┬ babel-plugin-transform-async-generator-functions@6.24.1 </tspan>
<tspan x="10" y="122">  │ ├─┬ babel-helper-remap-async-to-generator@6.24.1 </tspan>
<tspan x="10" y="138">  │ │ ├─┬ babel-helper-function-name@6.24.1 </tspan>
<tspan x="10" y="154">  │ │ │ └── babel-helper-get-function-arity@6.24.1 </tspan>
<tspan x="10" y="170">  │ │ ├─┬ babel-template@6.24.1 </tspan>
<tspan x="10" y="186">  │ │ │ ├── babylon@6.17.0 </tspan>
<tspan x="10" y="202">  │ │ │ └── lodash@4.17.4 </tspan>
<tspan x="10" y="218">  │ │ ├─┬ babel-traverse@6.24.1 </tspan>
<tspan x="10" y="234">  │ │ │ ├─┬ babel-code-frame@6.22.0 </tspan>
<tspan x="10" y="250">  │ │ │ │ ├─┬ chalk@1.1.3 </tspan>
<tspan x="10" y="266">  │ │ │ │ │ ├── ansi-styles@2.2.1 </tspan>
<tspan x="10" y="282">  │ │ │ │ │ ├── escape-string-regexp@1.0.5 </tspan>
<tspan x="10" y="298">  │ │ │ │ │ ├─┬ has-ansi@2.0.0 </tspan>
<tspan x="10" y="314">  │ │ │ │ │ │ └── ansi-regex@2.1.1 </tspan>
<tspan x="10" y="330">  │ │ │ │ │ ├── strip-ansi@3.0.1 </tspan>
<tspan x="10" y="346">  │ │ │ │ │ └── supports-color@2.0.0 </tspan>
<tspan x="10" y="362">  │ │ │ │ └── js-tokens@3.0.1 </tspan>
<tspan x="10" y="378">  │ │ │ ├── babel-messages@6.23.0 </tspan>
<tspan x="10" y="394">  │ │ │ ├─┬ debug@2.6.4 </tspan>
<tspan x="10" y="410">  │ │ │ │ └── ms@0.7.3 </tspan>
<tspan x="10" y="426">  │ │ │ ├── globals@9.17.0 </tspan>
<tspan x="10" y="442">  │ │ │ └─┬ invariant@2.2.2 </tspan>
<tspan x="10" y="458">  │ │ │   └── loose-envify@1.3.1 </tspan>
<tspan x="10" y="474">  │ │ └─┬ babel-types@6.24.1 </tspan>
<tspan x="10" y="490">  │ │   ├── esutils@2.0.2 </tspan>
<tspan x="10" y="506">  │ │   └── to-fast-properties@1.0.2 </tspan>
<tspan x="10" y="522">  │ ├── babel-plugin-syntax-async-generators@6.13.0 </tspan>
<tspan x="10" y="538">  │ └─┬ babel-runtime@6.23.0 </tspan>
<tspan x="10" y="554">  │   ├── core-js@2.4.1 </tspan>
<tspan x="10" y="570">  │   └── regenerator-runtime@0.10.3 </tspan>
<tspan x="10" y="586">  ├─┬ babel-plugin-transform-async-to-generator@6.24.1 </tspan>
<tspan x="10" y="602">  │ └── babel-plugin-syntax-async-functions@6.13.0 </tspan>
<tspan x="10" y="618">  ├─┬ babel-plugin-transform-exponentiation-operator@6.24.1 </tspan>
<tspan x="10" y="634">  │ ├─┬ babel-helper-builder-binary-assignment-operator-visitor@6.24.1 </tspan>
<tspan x="10" y="650">  │ │ └── babel-helper-explode-assignable-expression@6.24.1 </tspan>
<tspan x="10" y="666">  │ └── babel-plugin-syntax-exponentiation-operator@6.13.0 </tspan>
<tspan x="10" y="682">  └─┬ babel-plugin-transform-object-rest-spread@6.23.0 </tspan>
<tspan x="10" y="698">    └── babel-plugin-syntax-object-rest-spread@6.13.0</tspan>
</text>
</svg>
